<svg width="176" height="406" viewBox="0 0 176 406" fill="none" xmlns="http://www.w3.org/2000/svg">
<path d="M62.472 405.613C71.5742 405.937 80.6404 405.757 89.7426 405.577C115.078 405.109 140.449 404.605 165.785 404.137C169.727 404.065 174.816 403.201 175.102 400.141C175.353 397.405 171.34 395.677 167.971 394.849C155.823 391.932 143.066 391.356 130.452 390.888C111.889 390.168 93.3262 389.592 74.7993 389.124C63.2246 388.836 51.2914 388.62 40.505 391.68C34.628 393.336 25.9202 400.393 35.2732 403.777C37.8533 404.713 43.121 404.281 45.9161 404.533C51.3989 405.001 56.9175 405.433 62.472 405.613Z" fill="url(#paint0_linear_80_121)"/>
<path d="M62.472 405.613C71.5742 405.937 80.6404 405.757 89.7426 405.577C115.078 405.109 140.449 404.605 165.785 404.137C169.727 404.065 174.816 403.201 175.102 400.141C175.353 397.405 171.34 395.677 167.971 394.849C155.823 391.932 143.066 391.356 130.452 390.888C111.889 390.168 93.3262 389.592 74.7993 389.124C63.2246 388.836 51.2914 388.62 40.505 391.68C34.628 393.336 25.9202 400.393 35.2732 403.777C37.8533 404.713 43.121 404.281 45.9161 404.533C51.3989 405.001 56.9175 405.433 62.472 405.613Z" fill="url(#paint1_linear_80_121)"/>
<path d="M162.918 164.548C161.162 162.352 158.367 161.02 155.572 161.092C156.217 160.444 156.898 159.364 156.253 158.68C155.859 158.248 155.178 158.32 154.604 158.392C152.167 158.68 149.659 158.464 147.258 157.78C147.043 157.708 146.828 157.672 146.613 157.6C132.243 152.2 118.339 145.575 105.08 137.835C106.119 133.083 105.904 128.151 105.689 123.291C105.367 116.27 105.044 109.286 104.757 102.266C104.65 99.5658 104.399 96.6497 102.572 94.7056C99.3106 91.2855 93.0393 93.5176 90.8534 97.7297C88.6674 101.906 89.2766 106.982 89.9575 111.662C91.7492 123.903 93.541 136.179 95.3328 148.42C95.5478 149.824 95.7988 151.336 96.8021 152.344C97.5905 153.136 98.7371 153.424 99.8122 153.712C114.325 157.6 128.803 161.452 143.316 165.34C143.352 165.304 143.352 165.268 143.388 165.268C148.656 168.328 155.142 169.156 160.947 167.392C161.556 167.212 162.237 166.96 162.596 166.42C162.954 165.808 162.99 165.16 162.918 164.548Z" fill="#BCAEA0"/>
<path d="M143.531 165.664C143.424 165.952 143.281 166.24 142.994 166.384C142.743 166.528 142.42 166.456 142.134 166.42C127.19 163.648 111.638 161.308 97.4832 155.728C96.3364 155.26 95.1538 154.792 94.2938 153.892C93.2904 152.848 92.8244 151.371 92.4303 149.967C87.8075 133.731 83.4357 117.134 84.0091 100.286C84.1166 96.7576 84.5824 92.9774 86.8758 90.3133C89.4201 87.3972 93.5412 86.5692 97.3755 86.0652C99.8482 85.7411 102.679 85.5611 104.614 87.1452C106.514 88.6932 106.908 91.3933 107.194 93.8054C108.09 101.906 109.022 110.042 109.918 118.142C110.527 123.615 111.136 129.087 111.781 134.559C111.889 135.603 112.032 136.683 112.498 137.619C113.466 139.563 115.652 140.499 117.658 141.327C124.79 144.243 131.813 147.483 138.694 151.012C140.557 151.984 146.326 154.324 147.007 156.484C147.401 157.708 145.753 159.76 145.251 160.876C144.499 162.64 144.284 163.936 143.531 165.664Z" fill="#5B1F8B" fill-opacity="0.88"/>
<path d="M89.241 391.501C90.8536 392.689 88.6676 393.589 87.5925 393.697C85.6574 393.841 83.6507 393.769 81.7872 393.373C81.2855 393.265 80.7838 393.157 80.3896 392.869C80.0671 392.653 79.8522 392.365 79.6013 392.077C78.9921 391.285 77.5228 390.025 77.2719 389.089C77.0928 388.333 77.6304 387.577 78.0246 386.893C78.9204 385.417 80.4254 383.904 80.3537 382.14C84.5464 382.536 88.5242 381.312 92.0002 382.248C92.2869 383.508 93.3977 384.516 92.8602 385.488C93.1827 384.84 103.288 387.036 104.471 387.216C106.406 387.54 108.341 387.829 110.276 387.973C111.781 388.081 114.72 387.468 115.58 388.801C115.867 389.269 115.974 389.809 116.046 390.349C116.082 390.745 116.081 391.177 115.938 391.537C115.687 392.185 114.971 392.689 114.218 392.905C105.94 395.533 97.6623 391.393 89.241 391.501Z" fill="#999999"/>
<path d="M115.938 187.302C115.401 185.681 113.681 184.817 112.068 184.169C101.533 180.065 89.9578 179.633 78.6338 179.705C72.7568 179.741 66.9158 179.885 61.0388 180.137C56.9536 180.317 48.6755 180.389 46.5612 184.817C44.1961 189.786 42.1178 199.614 43.3362 204.618C45.5221 213.726 44.7336 230.035 47.1704 241.771C46.9195 290.157 46.6688 338.507 46.418 386.893C50.324 387.001 54.2301 387.073 58.1362 387.181C58.7095 371.232 63.583 355.68 67.6324 340.091C71.8968 323.603 75.2294 306.934 77.7021 290.157C78.5263 321.406 79.3505 352.692 80.2106 383.941C84.1166 383.941 88.0227 383.941 91.9288 383.941C92.0004 367.992 96.3723 352.332 99.92 336.671C108.162 300.346 115.222 243.392 114.612 206.382C114.971 200.874 115.293 195.366 116.01 190.11C116.117 189.173 116.225 188.202 115.938 187.302Z" fill="#171717"/>
<path d="M55.269 394.633C56.8458 395.857 54.6241 396.721 53.549 396.793C51.6139 396.901 49.6071 396.757 47.7437 396.325C47.242 396.217 46.7403 396.073 46.3461 395.785C46.0236 395.569 45.8087 395.245 45.5937 394.957C44.9845 394.129 43.5509 392.833 43.3717 391.933C43.1925 391.177 43.766 390.421 44.1961 389.737C45.1278 388.297 46.7045 386.785 46.6687 385.021C50.8256 385.525 54.875 384.373 58.3152 385.417C58.566 386.677 59.6409 387.721 59.0676 388.693C59.4259 388.045 69.4599 390.457 70.6425 390.709C72.5418 391.069 74.4768 391.393 76.4478 391.609C77.9529 391.753 80.8912 391.213 81.7155 392.545C82.0021 393.013 82.0738 393.553 82.1096 394.093C82.1454 394.489 82.1097 394.921 81.9663 395.281C81.6796 395.929 80.963 396.397 80.2104 396.613C71.825 399.061 63.6903 394.741 55.269 394.633Z" fill="#999999"/>
<path d="M97.3396 15.0348C93.4335 18.0229 91.0685 22.5951 88.8825 27.0233C86.1949 32.5315 83.5431 38.2557 83.149 44.3759C82.8623 48.9121 83.7581 53.7362 81.7155 57.7683C89.42 60.7204 96.9813 63.9966 104.399 67.5967C114.971 56.1123 122.317 41.6758 125.363 26.3392C125.47 25.8352 125.542 25.2952 125.363 24.7912C125.148 24.2512 124.646 23.8911 124.18 23.5671C117.587 19.1749 109.954 16.6909 102.392 14.2068C101.604 13.9548 100.78 13.6668 99.9557 13.7748C98.9881 13.8828 98.1279 14.4227 97.3396 15.0348Z" fill="#BCAEA0"/>
<path d="M115.257 177.401C114.899 169.409 114.72 161.38 114.827 153.388C115.006 135.027 114.039 116.775 112.713 98.45C112.176 91.0337 111.566 83.6534 110.885 76.2371C110.635 73.357 102.285 70.333 100.207 69.9009C98.9523 69.6489 97.7339 69.2529 96.5513 68.8569C95.4046 68.4609 94.2578 68.0288 93.1469 67.5968C87.4491 65.4007 81.7871 63.2047 76.0893 61.0086C75.2293 60.6846 74.3334 60.3606 73.4734 60.5406C72.7925 60.6846 72.2192 61.1166 71.6816 61.5486C61.0744 70.1529 58.1717 84.1574 55.269 96.8659C48.7112 125.451 45.0203 154.648 44.2319 183.881C44.2319 183.881 45.9162 188.525 51.614 191.801C57.3118 195.078 77.8454 197.49 77.8454 197.49L105.797 194.429C105.689 194.465 115.687 191.261 115.257 177.401Z" fill="#8642BB" fill-opacity="0.88"/>
<path d="M152.812 153.964C153.171 152.164 153.601 150.22 154.783 148.96C156.145 147.52 158.044 147.556 159.657 147.844C161.52 148.168 163.384 148.708 165.14 149.392C165.892 149.68 167.684 150.364 168.15 151.156C168.795 152.272 168.186 153.82 167.792 155.26C165.391 163.9 163.742 171.172 161.126 178.949C160.768 180.029 160.302 181.217 159.442 181.721C158.905 182.045 158.295 181.973 157.722 181.901C154.676 181.505 145.431 180.425 146.936 174.772C148.799 167.752 151.343 161.092 152.812 153.964Z" fill="#5370D7"/>
<path d="M154.138 152.524C154.389 151.876 154.64 151.192 155.142 150.796C155.715 150.328 156.396 150.4 157.005 150.472C159.585 150.868 162.13 151.552 164.638 152.272C165.032 152.38 166.036 152.668 166.322 153.028C166.502 153.244 166.86 153.64 166.932 153.964C167.183 155.08 166.502 156.16 166.322 157.348C166.143 158.428 165.641 159.4 165.391 160.444C165.14 161.596 164.781 162.712 164.423 163.828C163.921 165.484 163.491 167.176 163.097 168.868C162.81 170.092 162.488 171.28 162.273 172.504C162.165 173.08 161.951 173.656 161.628 174.124C161.126 174.773 160.553 174.844 159.908 174.772C158.654 174.628 157.435 174.269 156.253 173.945C154.461 173.405 152.705 172.9 150.913 172.36C150.268 172.18 148.906 172 148.906 170.92C148.906 170.344 149.301 169.552 149.444 168.976C149.659 168.22 149.874 167.464 150.089 166.672C150.913 163.612 151.666 160.552 152.526 157.492C153.028 155.836 153.565 154.18 154.138 152.524Z" fill="#D2D2D2"/>
<path d="M163.348 150.436C163.169 150.328 162.954 150.256 162.739 150.22C162.273 150.076 161.771 149.968 161.305 149.824C161.019 149.752 160.661 149.68 160.589 149.824C160.553 149.896 160.589 150.004 160.661 150.076C161.019 150.436 163.348 151.228 163.599 150.796C163.671 150.688 163.527 150.544 163.348 150.436Z" fill="#279127"/>
<path d="M160.338 149.607C160.302 149.499 160.195 149.427 160.051 149.463C159.944 149.499 159.836 149.571 159.801 149.715C159.765 149.787 159.729 149.895 159.765 149.967C159.801 150.147 159.98 150.219 160.123 150.147C160.266 150.075 160.338 149.895 160.338 149.715V149.607Z" fill="#279127"/>
<path d="M153.601 175.817C153.315 175.961 153.063 176.249 152.92 176.573C152.848 176.717 152.777 176.897 152.741 177.041C152.67 177.473 152.813 177.869 153.064 178.157C153.314 178.445 153.709 178.589 154.067 178.625C154.175 178.625 154.282 178.625 154.354 178.589C154.461 178.553 154.569 178.481 154.64 178.373C154.963 178.049 155.214 177.545 155.214 177.077C155.249 176.249 154.425 175.421 153.601 175.817Z" fill="#EBEFEB"/>
<path d="M99.8121 40.7034C98.5937 39.4074 97.053 37.9673 95.2612 38.2193C93.6128 38.4353 92.4661 40.0554 92.1436 41.7114C91.8211 43.3315 92.1076 45.0236 92.2151 46.6796C92.2509 47.0397 92.2151 47.4357 92.0001 47.6877C91.7492 47.9757 91.3193 47.9757 90.9251 48.0117C89.4558 48.1557 88.0942 48.9477 87.2342 50.1357C86.5891 51.0358 86.2308 52.1518 85.4424 52.9799C84.4032 54.0959 82.8263 54.4559 81.3213 54.6719C79.852 54.8879 78.4187 55.068 76.9495 55.14C75.7669 55.212 74.3692 55.14 73.6883 54.1319C73.545 53.9519 73.4734 53.736 73.5092 53.4839C73.5809 53.0879 73.9749 52.9079 74.2975 52.6919C75.5159 51.8639 75.946 50.2437 76.0177 48.7677C76.1252 47.2916 76.0177 45.7437 76.6627 44.3756C77.0211 43.6196 77.5944 42.9715 78.1677 42.3955C82.3246 38.0753 87.7717 35.1952 93.4695 33.5392C94.9745 33.1072 100.636 31.055 101.927 32.2431C103.145 33.3591 100.135 39.0833 99.8121 40.7034Z" fill="#999999"/>
<path d="M120.74 32.1716C121.493 32.6036 122.21 33.1797 122.64 33.8997C122.926 34.3677 123.069 34.9077 123.32 35.3758C123.894 36.4918 124.969 37.3198 126.187 37.5718C126.187 36.4197 126.187 35.2317 126.223 34.0796C126.223 33.8276 126.223 33.5396 126.438 33.3596C126.725 33.1076 127.155 33.2516 127.477 33.0356C127.764 32.8556 127.8 32.4596 127.835 32.1355C127.907 30.6595 127.979 29.1115 127.477 27.7075C127.298 27.2034 127.011 26.6994 126.581 26.4114C126.115 26.0873 125.542 26.0513 124.969 26.0513C122.281 25.9793 116.691 26.3394 114.612 28.4635C112.426 30.7315 119.271 31.3436 120.74 32.1716Z" fill="#999999"/>
<path d="M49.1055 181.037C49.4997 183.413 50.0372 185.825 49.5355 188.165C49.1772 189.821 48.2813 191.297 47.242 192.557C42.5476 198.245 34.9147 199.937 27.7835 200.405C19.3981 200.981 9.93753 199.829 4.45474 193.025C1.08623 188.849 -0.132137 183.125 0.0112043 177.652C0.154545 172.18 1.55211 166.816 2.91385 161.56C6.24653 148.743 9.615 135.927 12.9477 123.111C13.4852 121.058 14.0586 118.934 15.4562 117.422C17.3196 115.406 20.1506 114.866 22.8024 114.578C27.676 114.002 32.6571 113.714 37.4232 114.83C41.4009 115.766 47.493 118.394 49.3564 122.642C51.4348 127.431 49.8939 135.819 49.5714 140.931C48.7114 154.288 46.8121 167.788 49.1055 181.037Z" fill="#999999"/>
<path d="M56.9534 90.8176C61.1461 84.3734 67.023 78.3971 74.9784 75.157C82.9339 71.9169 93.2186 71.9529 100.135 76.5251C106.944 81.0252 109.201 88.6935 110.097 95.8578C111.746 108.818 110.348 121.959 107.23 134.739C105.904 140.247 104.22 145.756 101.174 150.796C97.4471 156.952 91.821 162.136 85.9799 167.032C74.6559 176.501 61.5403 185.429 45.737 188.201C44.0527 188.489 42.2252 188.777 41.1143 189.821C38.9642 191.837 41.1143 195.33 44.232 196.086C47.3496 196.842 50.6822 195.797 53.5849 194.609C68.2057 188.669 80.1387 179.093 91.7852 169.696C95.8704 166.42 99.9914 163.072 102.536 158.86C104.65 155.368 105.582 151.48 106.478 147.628C109.775 133.407 113.107 119.115 114.182 104.642C114.612 98.5939 114.684 92.4376 112.677 86.6054C110.67 80.7732 106.37 75.265 99.9198 72.4209C96.0496 70.7288 91.6418 70.0088 87.2699 69.9008C76.7702 69.6488 66.2348 72.7809 58.3511 78.5051C55.1617 80.8092 52.2949 83.6533 51.184 87.0734C50.1806 90.1335 50.6465 94.3456 53.8716 96.3617C54.9825 94.6697 55.7709 92.6177 56.9534 90.8176Z" fill="#171717"/>
<path d="M12.2667 97.9456C16.9611 92.1493 24.3792 87.6492 32.5855 87.3252C36.814 87.1452 41.0066 88.0452 45.0202 89.2333C47.9228 90.0973 50.8254 91.1774 53.0114 93.0494C56.4874 96.0015 57.5268 100.466 57.6701 104.642C57.8493 109.106 57.2042 113.606 55.8066 117.926C55.2691 119.618 54.5524 121.31 53.119 122.57C51.0047 124.443 47.7438 124.947 44.6978 125.127C33.3738 125.919 21.8707 124.191 11.5143 120.194C5.49399 117.89 3.73802 117.314 5.42227 111.626C6.85568 106.766 8.93403 102.05 12.2667 97.9456Z" fill="#171717"/>
<path d="M29.8978 165.736C31.4029 165.448 33.1946 165.124 34.2696 166.24C34.8072 166.816 35.0222 167.644 35.1655 168.436C36.1331 173.98 35.3806 179.813 32.9796 184.925C32.1912 186.617 31.2237 188.237 29.862 189.497C27.1026 192.053 23.1606 192.773 19.3979 192.701C17.212 192.665 14.9185 192.341 13.1267 191.117C10.2599 189.137 9.2925 185.393 9.00582 181.901C8.75497 178.769 8.82652 175.601 9.32822 172.504C9.57906 170.812 9.90159 165.736 11.8009 165.088C12.7684 164.764 15.026 165.772 16.0653 165.952C17.6062 166.204 19.1831 166.384 20.724 166.456C23.8058 166.564 26.8877 166.348 29.8978 165.736Z" fill="#1F1F1F"/>
<path d="M8.43216 168.184C8.36049 168.472 8.32476 168.832 8.53977 169.048C8.68311 169.192 8.89802 169.192 9.11303 169.192C16.4951 169.516 23.8773 169.804 31.2594 170.128C32.5853 170.2 34.0544 170.2 35.0936 169.372C36.3837 168.364 36.5272 166.348 35.7388 164.944C34.9504 163.54 33.3736 162.676 31.7968 162.352C30.2201 162.028 28.5717 162.136 26.9591 162.208C22.5514 162.46 18.1078 162.676 13.7001 162.568C12.4817 162.532 11.4423 162.244 10.4748 163.144C9.32806 164.224 8.75467 166.708 8.43216 168.184Z" fill="#171717"/>
<path d="M34.9147 136.971C35.1655 136.971 35.4164 136.971 35.6314 137.079C35.9898 137.259 36.0974 137.727 36.1691 138.123C36.5274 140.247 36.5631 142.479 36.2047 144.603C36.1689 144.855 36.0974 145.108 35.9182 145.216C35.7748 145.324 35.5597 145.324 35.3806 145.324C28.2494 145.144 21.0824 144.964 13.9512 144.712C13.9153 143.164 14.0228 141.579 14.3453 140.031C15.1695 136.107 19.7923 137.295 22.8741 137.223C26.8877 137.151 30.9011 137.079 34.9147 136.971Z" fill="#171717"/>
<path d="M8.68321 131.067C8.68321 132.867 8.75492 134.703 8.50408 136.503C7.85904 141.363 5.028 145.648 1.94617 149.5C3.12873 149.968 4.34713 150.436 5.52969 150.904C6.28223 149.176 6.99892 147.448 7.75146 145.755C8.46816 144.063 9.22084 142.335 9.6867 140.535C10.2601 138.303 10.3675 135.999 10.5108 133.695C10.6542 130.959 12.6611 120.915 10.6543 119.079C8.11002 120.231 8.71905 128.583 8.68321 131.067Z" fill="#171717"/>
<path d="M121.851 193.061C123.284 194.285 124.79 195.509 126.581 196.049C128.373 196.589 130.559 196.301 131.742 194.825C132.996 193.241 132.709 190.865 131.598 189.173C130.487 187.481 128.731 186.365 127.047 185.285C128.194 185.717 129.376 184.277 129.126 183.089C128.839 181.865 127.656 181.109 126.474 180.749C125.291 180.389 124.037 180.317 122.89 179.849C121.851 179.453 120.31 179.236 119.45 178.552C115.723 175.6 114.254 173.584 109.309 168.832C107.911 167.5 106.693 166.096 105.403 164.656C104.507 163.648 103.683 162.568 102.643 161.704C101.102 160.408 98.5223 160.12 97.0531 158.752C95.8705 157.672 94.7953 156.736 93.1111 157.492C90.4234 158.752 90.7818 162.748 92.0719 164.836C94.222 168.256 98.128 171.244 100.995 174.052C104.22 177.22 107.517 180.317 110.85 183.377C114.433 186.653 118.124 189.893 121.851 193.061Z" fill="#BCAEA0"/>
<path d="M90.2444 142.12C89.4202 141.184 88.5602 140.248 88.0585 139.096C87.4852 137.8 87.3777 136.323 87.4135 134.847C87.5927 128.547 90.4952 122.571 93.3262 116.775C95.0463 113.283 96.7665 109.79 98.845 106.55C100.278 104.318 102.07 101.186 102.536 98.666C103.073 95.7499 103.575 90.1337 103.217 89.0897C101.389 83.5815 97.0173 78.7933 90.9253 78.7573C89.2052 78.7573 82.934 81.1334 81.7156 82.3935C80.2822 83.8695 77.7738 88.1176 75.9462 90.0977C75.3728 90.7457 75.0861 91.5738 74.7994 92.3658C74.0111 94.5619 73.2586 96.7579 72.4703 98.954C71.5386 101.546 70.6427 104.138 69.9976 106.802C69.1018 110.403 68.7075 114.111 68.815 117.747C68.9225 120.987 67.7757 125.775 68.2774 128.943C68.7791 132.183 68.3492 136.36 68.8509 139.6C69.2092 141.904 69.5676 144.208 70.4276 146.332C71.2518 148.348 72.5418 150.148 73.8677 151.876C80.2822 160.12 104.041 179.129 111.817 186.041L119.414 177.545C112.032 172.325 96.3006 148.852 90.2444 142.12Z" fill="#581B88" fill-opacity="0.9"/>
<path d="M80.2463 15.0708C78.0246 16.8348 75.1578 17.4828 72.6493 18.7428C70.1408 20.0029 67.7399 22.487 68.1699 25.2951C68.7074 28.7512 73.2583 30.8033 73.1508 34.2954C73.115 35.5195 72.4701 36.6715 72.3984 37.8956C72.1476 41.0997 75.767 43.4757 78.9563 43.2597C82.1457 43.0437 84.9408 41.1357 87.7001 39.4436C98.1999 33.0354 110.348 29.5073 122.604 29.1473C124.646 29.0753 126.796 29.1112 128.624 28.2112C130.487 27.3472 131.956 25.2231 131.383 23.243C130.595 20.4349 126.725 19.931 125.04 17.5909C124.109 16.2948 123.929 14.6027 123.32 13.1266C122.173 10.4626 119.665 8.73448 117.228 7.15042C112.283 3.8743 107.051 0.526171 101.174 0.0581534C95.9421 -0.373862 90.4953 1.64228 86.3384 4.73839C82.6115 7.5825 83.9732 12.0826 80.2463 15.0708Z" fill="#171717"/>
<defs>
<linearGradient id="paint0_linear_80_121" x1="31.3608" y1="395.003" x2="175.008" y2="402.055" gradientUnits="userSpaceOnUse">
<stop stop-color="#4D4D4D"/>
<stop offset="1"/>
</linearGradient>
<linearGradient id="paint1_linear_80_121" x1="31.3608" y1="395.003" x2="175.008" y2="402.055" gradientUnits="userSpaceOnUse">
<stop/>
<stop offset="1"/>
</linearGradient>
</defs>
</svg>
