<svg width="39" height="39" viewBox="0 0 39 39" fill="none" xmlns="http://www.w3.org/2000/svg">
<rect width="38.4" height="38.4" rx="19.2" fill="#8643BB"/>
<path d="M28.8294 12.6239C27.0679 11.2147 24.9542 10.5101 22.723 10.3927L22.3707 10.745C24.367 11.2147 26.1285 12.1542 27.7725 13.4459C25.7762 12.389 23.545 11.6844 21.1964 11.4496C20.4918 11.3321 19.9046 11.3321 19.2 11.3321C18.4954 11.3321 17.9083 11.3321 17.2037 11.4496C14.8551 11.6844 12.6239 12.389 10.6275 13.4459C12.2716 12.1542 14.0331 11.2147 16.0294 10.745L15.6771 10.3927C13.4459 10.5101 11.3321 11.2147 9.57067 12.6239C7.57434 16.3817 6.51746 20.6092 6.40002 24.9542C8.16149 26.8331 10.6275 28.0074 13.211 28.0074C13.211 28.0074 14.0331 27.0679 14.6202 26.2459C13.0936 25.8936 11.6844 25.0716 10.745 23.7799C11.567 24.2496 12.389 24.7193 13.211 25.0716C14.2679 25.5413 15.3248 25.7762 16.3817 26.011C17.3211 26.1285 18.2606 26.2459 19.2 26.2459C20.1395 26.2459 21.0789 26.1285 22.0184 26.011C23.0753 25.7762 24.1321 25.5413 25.189 25.0716C26.011 24.7193 26.8331 24.2496 27.6551 23.7799C26.7156 25.0716 25.3064 25.8936 23.7798 26.2459C24.367 27.0679 25.189 28.0074 25.189 28.0074C27.7725 28.0074 30.2386 26.8331 32 24.9542C31.8826 20.6092 30.8257 16.3817 28.8294 12.6239ZM15.3248 22.8404C14.1505 22.8404 13.0936 21.7835 13.0936 20.4918C13.0936 19.2 14.1505 18.1432 15.3248 18.1432C16.4991 18.1432 17.556 19.2 17.556 20.4918C17.556 21.7835 16.4991 22.8404 15.3248 22.8404ZM23.0753 22.8404C21.9009 22.8404 20.8441 21.7835 20.8441 20.4918C20.8441 19.2 21.9009 18.1432 23.0753 18.1432C24.2496 18.1432 25.3064 19.2 25.3064 20.4918C25.3064 21.7835 24.2496 22.8404 23.0753 22.8404Z" fill="white"/>
</svg>
