<svg width="218" height="399" viewBox="0 0 218 399" fill="none" xmlns="http://www.w3.org/2000/svg">
<path d="M103.414 398.254C112.588 398.578 121.762 398.398 130.936 398.218C156.522 397.75 182.144 397.282 207.731 396.814C211.708 396.742 216.869 395.878 217.155 392.818C217.406 390.082 213.357 388.354 209.952 387.526C197.697 384.609 184.796 384.033 172.075 383.529C153.333 382.809 134.591 382.197 115.849 381.729C104.131 381.441 92.1265 381.225 81.2326 384.249C75.2839 385.905 66.504 392.926 75.9645 396.346C78.5804 397.282 83.884 396.85 86.715 397.102C92.2337 397.642 97.8241 398.074 103.414 398.254Z" fill="url(#paint0_linear_80_122)"/>
<path d="M103.414 398.254C112.588 398.578 121.762 398.398 130.936 398.218C156.522 397.75 182.144 397.282 207.731 396.814C211.708 396.742 216.869 395.878 217.155 392.818C217.406 390.082 213.357 388.354 209.952 387.526C197.697 384.609 184.796 384.033 172.075 383.529C153.333 382.809 134.591 382.197 115.849 381.729C104.131 381.441 92.1265 381.225 81.2326 384.249C75.2839 385.905 66.504 392.926 75.9645 396.346C78.5804 397.282 83.884 396.85 86.715 397.102C92.2337 397.642 97.8241 398.074 103.414 398.254Z" fill="url(#paint1_linear_80_122)"/>
<path d="M150.394 380.073C150.43 380.253 150.466 380.433 150.61 380.577C150.789 380.793 151.111 380.793 151.398 380.793C153.405 380.757 155.448 380.613 157.419 380.253C158.279 380.109 159.318 379.749 159.497 378.885C159.568 378.489 159.425 378.057 159.282 377.697C158.422 375.429 157.562 373.161 156.702 370.893C156.666 370.821 156.63 370.713 156.558 370.677C156.451 370.605 156.307 370.569 156.2 370.569C154.766 370.533 153.333 370.677 151.9 370.965C151.004 371.145 149.32 371.253 148.89 372.225C148.46 373.161 149.176 374.745 149.391 375.681C149.749 377.121 150.072 378.597 150.394 380.073Z" fill="#F9E9DE"/>
<path d="M101.515 380.073C103.45 380.181 105.385 380.289 107.284 380.433C107.464 380.433 107.679 380.433 107.822 380.325C108.001 380.181 108.001 379.965 108.037 379.749C108.145 377.229 108.073 374.709 107.858 372.189C107.858 372.009 107.822 371.793 107.714 371.649C107.571 371.469 107.321 371.397 107.07 371.325C105.959 371.073 104.848 370.821 103.701 370.821C102.805 370.821 101.766 370.965 100.978 371.433C100.154 371.937 100.297 372.261 100.44 373.125C100.834 375.429 101.085 377.733 101.515 380.073Z" fill="#F9E9DE"/>
<path d="M146.703 372.225C150.681 373.089 154.91 372.585 158.565 370.821C154.444 356.888 153.225 352.784 149.14 338.851C147.85 334.459 146.524 329.995 145.987 325.459C145.342 319.843 145.879 314.155 146.417 308.538C148.495 286.722 153.799 214.431 155.877 192.65C156.056 190.814 156.235 188.942 155.662 187.178C154.049 182.174 139.608 181.31 134.376 180.878C133.229 180.77 124.665 180.734 123.733 181.382C122.658 182.138 114.165 180.59 113.986 181.886C111.477 198.986 120.938 234.952 121.081 253.276C121.117 259.36 123.554 298.314 124.02 304.398C124.844 315.091 128.141 326.395 132.584 336.187C139.393 351.236 140.289 354.656 146.703 372.225Z" fill="#7B40AA"/>
<path d="M117.247 183.938C115.957 182.894 103.092 181.921 101.443 181.885L80.9457 182.21C80.4798 215.475 87.0734 306.81 93.4163 339.463C96.1398 353.54 99.2575 358.292 99.2933 372.621C102.303 372.621 105.278 372.621 108.288 372.621C109.291 327.763 120.472 234.447 121.511 189.59C121.547 187.358 119.003 185.378 117.247 183.938Z" fill="#7B40AA"/>
<path d="M106.066 79.4979C103.164 69.8136 92.1979 68.4455 90.2986 80.938C88.5786 92.2424 80.3007 116.003 75.5704 127.092C73.3128 132.42 68.9052 136.524 62.7416 138.828C50.4859 143.4 38.5887 148.801 26.118 152.833C26.1539 152.905 26.1539 152.941 26.1539 153.013C24.0755 153.841 21.8175 154.273 19.5599 154.273C16.6214 154.273 13.4678 153.589 10.9594 154.993C11.1027 155.317 11.2461 155.641 11.4252 156.001C12.0344 156.109 12.6078 156.217 13.217 156.289C11.7836 156.613 10.3864 157.153 9.09629 157.873C7.84206 158.593 6.62338 159.817 7.01757 161.113C7.44759 162.409 9.16768 162.769 10.6011 162.805C16.6214 162.985 22.4626 161.149 28.1604 159.133C43.9638 155.965 54.8219 150.493 70.7327 147.36C73.8146 146.748 77.0398 146.1 79.7274 144.48C82.3434 142.896 84.1708 140.592 85.7834 138.288C96.4981 122.951 110.761 95.0145 106.066 79.4979Z" fill="#BCAEA0"/>
<path d="M130.183 59.4451C132.405 57.105 134.125 53.7929 135.057 49.6888C136.777 42.0925 137.673 34.1002 135.845 26.6479C133.731 18.0796 126.241 8.79121 116.781 9.58324C105.708 10.4833 104.024 25.0279 103.2 34.7482C102.519 42.4525 103.88 50.5888 108.396 56.529C115.204 65.3853 124.378 65.6373 130.183 59.4451Z" fill="#BCAEA0"/>
<path d="M85.7834 378.849C87.5393 378.885 89.3315 378.993 91.0874 379.281C93.1658 379.569 95.2442 380.073 97.3227 379.857C98.2544 379.749 99.1504 379.533 100.082 379.389C101.515 379.173 102.949 379.209 104.382 379.209C105.708 379.245 107.034 379.245 108.36 379.281C108.718 379.281 109.148 379.317 109.435 379.533C109.758 379.785 109.865 380.181 109.937 380.577C110.259 382.053 110.438 383.565 110.438 385.077C110.438 385.977 110.367 386.985 109.757 387.633C109.327 388.101 108.682 388.354 108.073 388.534C106.891 388.822 105.672 388.894 104.454 388.966C98.1827 389.326 91.8757 389.65 85.6045 389.254C83.4185 389.11 79.4407 389.434 77.8281 387.67C76.4664 386.193 77.1474 383.817 77.9716 382.269C79.5483 379.317 82.7732 378.813 85.7834 378.849Z" fill="#537082"/>
<path d="M88.722 384.321C89.152 384.465 89.6538 384.537 90.1196 384.501C90.1913 384.501 90.2627 384.465 90.3344 384.429C90.4061 384.357 90.4061 384.285 90.4061 384.177C90.5136 382.593 90.5495 380.973 90.4779 379.389C90.4779 379.317 90.4778 379.245 90.442 379.173C90.4062 379.101 90.2989 379.065 90.1914 379.029C88.7579 378.669 88.8296 379.065 88.8296 380.397C88.8296 381.693 88.7937 383.025 88.722 384.321Z" fill="#C1C1C1"/>
<path d="M93.6313 383.565C93.6313 383.709 93.6314 383.853 93.7389 383.961C93.8464 384.033 93.9896 384.033 94.0972 383.997C94.4913 383.925 94.8854 383.889 95.2796 383.817C95.3512 383.817 95.4231 383.781 95.4589 383.745C95.5306 383.673 95.5307 383.601 95.5307 383.493C95.5665 382.161 95.5665 380.829 95.5665 379.497C95.5665 379.425 95.5665 379.353 95.5307 379.317C95.4948 379.245 95.423 379.245 95.3513 379.209C94.7421 379.029 94.1688 379.353 93.6313 379.209C93.5596 380.649 93.6313 382.125 93.6313 383.565Z" fill="#C1C1C1"/>
<path d="M98.3974 383.313C98.3974 383.385 98.4333 383.457 98.4691 383.493C98.505 383.529 98.5768 383.529 98.6485 383.529C98.9352 383.529 99.2577 383.529 99.5444 383.529C99.6877 383.529 99.831 383.529 99.9385 383.421C100.01 383.349 100.01 383.241 100.046 383.133C100.118 382.269 100.225 378.417 98.505 379.137C97.3224 379.605 98.2182 382.413 98.3974 383.313Z" fill="#C1C1C1"/>
<path d="M148.89 380.973C149.391 380.109 149.964 379.245 150.753 378.633C151.577 377.985 152.58 377.589 153.584 377.265C154.874 376.869 156.236 376.617 157.597 376.797C159.676 377.085 161.539 378.489 162.722 380.253C163.904 382.017 164.514 384.105 164.8 386.229C164.872 386.697 164.908 387.201 164.764 387.669C164.585 388.137 164.227 388.461 163.797 388.749C162.507 389.613 160.93 389.937 159.389 390.117C157.096 390.405 154.767 390.513 152.437 390.621C151.362 390.657 150.215 390.693 149.176 390.333C147.528 389.757 146.668 388.749 146.918 387.057C147.241 384.897 147.815 382.881 148.89 380.973Z" fill="#537082"/>
<path d="M96.3551 91.5944C92.8432 119.855 85.4255 147.433 79.4768 175.298C78.9035 177.998 78.3297 180.806 79.0823 183.47C80.1215 187.178 83.5258 189.806 87.1452 191.138C91.0512 192.614 95.28 192.902 99.4369 193.154C114.882 194.018 130.363 194.018 145.772 193.154C147.886 193.046 150.072 192.902 151.971 191.93C155.232 190.31 157.06 186.602 157.454 182.966C157.884 179.33 157.131 175.693 156.558 172.057C153.118 150.205 155.77 127.704 151.936 105.887C150.861 99.6587 149.248 93.5025 148.746 87.2022C148.46 83.5661 148.567 79.894 147.814 76.3659C147.062 72.8018 145.27 69.2736 142.153 67.4015C136.491 64.0174 129.395 67.3656 122.873 68.2656C118.537 68.8416 114.129 68.2656 109.901 67.2576C106.64 66.5015 103.379 64.2334 101.013 67.2215C96.749 72.6577 97.1793 85.0782 96.3551 91.5944Z" fill="#171717"/>
<path d="M95.9967 128.244C91.9115 128.244 91.9115 134.616 95.9967 134.616C100.082 134.58 100.082 128.244 95.9967 128.244Z" fill="#171717"/>
<path d="M104.597 111.935C100.512 111.935 100.512 118.308 104.597 118.308C108.682 118.272 108.682 111.935 104.597 111.935Z" fill="#171717"/>
<path d="M112.015 136.704C107.93 136.704 107.93 143.077 112.015 143.077C116.1 143.041 116.1 136.704 112.015 136.704Z" fill="#171717"/>
<path d="M117.39 99.0467C113.305 99.0467 113.305 105.419 117.39 105.419C121.475 105.383 121.475 99.0467 117.39 99.0467Z" fill="#171717"/>
<path d="M91.0156 153.733C86.9304 153.733 86.9304 160.105 91.0156 160.105C95.065 160.069 95.1008 153.733 91.0156 153.733Z" fill="#171717"/>
<path d="M125.489 121.187C121.404 121.187 121.404 127.56 125.489 127.56C129.574 127.56 129.574 121.187 125.489 121.187Z" fill="#171717"/>
<path d="M87.9338 177.602C83.8486 177.602 83.8486 183.974 87.9338 183.974C92.019 183.974 92.019 177.602 87.9338 177.602Z" fill="#171717"/>
<path d="M105.744 162.157C101.659 162.157 101.659 168.53 105.744 168.53C109.793 168.494 109.793 162.157 105.744 162.157Z" fill="#171717"/>
<path d="M119.97 178.718C115.885 178.718 115.885 185.09 119.97 185.09C124.02 185.054 124.056 178.718 119.97 178.718Z" fill="#171717"/>
<path d="M125.489 153.733C121.404 153.733 121.404 160.105 125.489 160.105C129.574 160.069 129.574 153.733 125.489 153.733Z" fill="#171717"/>
<path d="M150.394 178.718C146.309 178.718 146.309 185.09 150.394 185.09C154.444 185.054 154.444 178.718 150.394 178.718Z" fill="#171717"/>
<path d="M150.394 150.169C154.48 150.169 154.48 143.796 150.394 143.796C146.309 143.832 146.309 150.169 150.394 150.169Z" fill="#171717"/>
<path d="M105.744 86.9864C101.659 86.9864 101.659 93.3587 105.744 93.3587C109.793 93.3227 109.793 86.9864 105.744 86.9864Z" fill="#171717"/>
<path d="M119.97 79.5341C124.056 79.5341 124.056 73.1618 119.97 73.1618C115.885 73.1618 115.885 79.5341 119.97 79.5341Z" fill="#171717"/>
<path d="M139.106 68.7339C135.021 68.7339 135.021 75.1061 139.106 75.1061C143.191 75.1061 143.191 68.7339 139.106 68.7339Z" fill="#171717"/>
<path d="M147.313 105.095C143.227 105.095 143.227 111.467 147.313 111.467C151.398 111.467 151.398 105.095 147.313 105.095Z" fill="#171717"/>
<path d="M114.595 191.174C110.08 182.102 108.037 172.129 105.672 162.301C103.163 151.789 100.87 141.24 99.4365 130.512C98.1106 120.468 97.4654 110.387 97.4296 100.271C97.3937 95.3746 97.5375 90.5145 97.8241 85.6543C98.0391 81.8741 97.6091 64.8816 105.457 67.5817C106.03 67.7977 106.46 66.8616 105.887 66.5736C99.4009 63.2615 97.2505 71.0018 96.6413 75.934C94.9929 89.6505 94.742 103.583 95.7095 117.336C96.6054 130.224 98.648 142.968 101.479 155.569C104.274 167.989 106.747 180.986 112.445 192.47C113.161 193.91 115.311 192.65 114.595 191.174Z" fill="#999999"/>
<path d="M154.085 122.628C153.87 121.944 152.867 122.232 153.01 122.916C157.382 145.993 162.076 169.141 153.404 191.858C152.831 193.406 155.304 194.09 155.877 192.542C164.478 169.969 161.073 145.165 154.085 122.628Z" fill="#999999"/>
<path d="M144.732 184.586C147.313 184.334 150.144 184.118 152.294 185.558C154.766 187.178 155.626 190.418 156.164 193.334C157.884 202.659 158.672 212.163 158.493 221.631C158.457 223.143 158.386 224.727 157.741 226.095C156.737 228.147 154.587 229.336 152.473 230.2C143.55 233.836 133.623 233.62 123.984 233.332C123.016 233.296 121.977 233.26 121.153 232.755C119.827 231.963 119.361 230.271 119.003 228.723C116.637 217.887 114.882 206.907 113.771 195.854C113.592 194.054 113.413 192.182 113.914 190.454C115.706 183.902 138.641 185.198 144.732 184.586Z" fill="#999999"/>
<path d="M150.502 193.262C148.853 208.743 124.987 212.919 119.29 197.942C119.11 197.474 118.393 197.654 118.537 198.158C124.127 215.367 150.323 210.111 152.258 193.298C152.401 192.146 150.609 192.146 150.502 193.262Z" fill="#353434"/>
<path d="M136.562 204.387C137.494 203.739 137.637 202.227 136.813 201.435C135.882 200.535 134.269 200.931 133.767 202.083C133.695 202.227 133.66 202.371 133.66 202.551C133.588 202.839 133.624 203.127 133.731 203.451C134.125 204.603 135.559 205.071 136.562 204.387Z" fill="#353434"/>
<path d="M148.495 124.248C148.172 116.291 147.277 108.371 146.417 100.451C146.094 97.6427 145.807 94.7986 144.947 92.1345C144.159 89.6504 142.977 87.3103 142.547 84.7542C142.26 82.8821 142.367 80.8661 141.364 79.282C140.038 77.2299 137.351 76.6179 134.914 76.4379C132.119 76.2219 129.037 76.3298 126.958 78.2019C123.948 80.902 124.45 85.7262 125.417 89.6863C126.349 93.4305 127.46 97.1746 128.248 100.955C129.754 108.155 130.04 115.571 131.509 122.772C132.728 128.748 132.584 134.616 133.014 140.736C133.695 150.529 131.653 160.069 129.825 169.717C128.75 175.442 127.603 181.274 127.639 187.106C126.6 190.49 125.704 193.91 124.701 197.33C124.593 197.726 124.521 198.266 124.88 198.482C125.131 198.626 125.417 198.518 125.668 198.626C125.955 198.734 126.098 199.094 126.134 199.382C126.421 200.895 125.776 202.407 125.346 203.883C124.916 205.359 124.7 207.123 125.668 208.311C126.241 209.031 127.137 209.391 128.033 209.571C129.574 209.931 131.294 209.823 132.584 208.923C134.627 207.519 135.093 204.747 135.308 202.299C135.774 197.798 136.096 193.262 136.383 188.762C139.895 172.633 143.442 156.505 146.954 140.376C147.492 137.964 148.029 135.516 148.28 133.032C148.674 130.116 148.638 127.164 148.495 124.248Z" fill="#BCAEA0"/>
<path d="M175.192 106.103C173.974 105.239 172.397 104.987 171.322 103.943C169.817 102.503 169.817 100.091 170.426 98.1106C170.999 96.1305 172.075 94.2584 172.325 92.2063C173.042 86.8421 168.455 82.486 165.051 78.2739C155.984 67.0414 154.121 52.1369 153.835 38.1324C153.763 35.0723 154.085 31.8681 153.584 29.6C153.62 29.348 153.691 29.096 153.727 28.844C155.376 20.7077 152.831 15.4876 147.635 10.0154C139.178 1.05104 125.596 -2.54909 114.021 1.91507C113.735 2.02308 113.412 2.16699 113.09 2.275C109.112 5.73113 105.672 9.94337 104.203 15.4156C103.271 18.7997 102.985 22.7958 103.665 26.324C103.809 26.792 103.952 27.2599 104.131 27.6919C104.346 23.9478 105.027 19.9157 106.926 18.8717C108.61 17.8996 117.175 20.8157 119.72 20.6357C124.056 20.3477 131.76 17.3596 134.09 22.6158C135.272 25.2799 133.874 28.376 132.799 30.9321C132.727 31.0761 132.692 31.1841 132.62 31.3281C131.975 32.8761 131.366 34.4602 131.258 35.0002C130.434 39.6444 129.825 43.8566 129.825 47.3127C128.176 53.4329 127.89 59.9851 128.105 66.3933C128.141 67.3294 128.177 68.3015 128.571 69.1295C130.076 72.4056 134.806 71.6136 138.318 72.4056C141.901 73.2336 144.661 76.2218 146.381 79.4979C151.183 88.6422 149.212 99.7306 150.394 109.991C150.717 112.727 151.29 115.499 152.652 117.911C155.411 122.844 161.575 125.616 167.058 124.392C172.576 123.167 176.984 118.055 177.414 112.439C177.701 110.099 177.128 107.471 175.192 106.103Z" fill="#1E1E1E"/>
<path d="M147.707 391.089C148.459 392.098 149.893 392.206 151.147 392.242C154.731 392.314 158.314 392.421 161.826 391.809C162.65 391.665 163.474 391.485 164.155 391.017C164.836 390.549 165.338 389.721 165.23 388.929C165.123 388.065 164.334 387.417 163.474 387.165C162.614 386.949 161.719 387.057 160.859 387.165C157.956 387.561 155.053 388.137 152.15 388.461C150.86 388.605 149.176 388.317 147.958 388.677C146.811 388.929 147.098 390.297 147.707 391.089Z" fill="white"/>
<path d="M78.0791 389.433C78.6524 389.937 79.4765 390.081 80.2291 390.153C84.0993 390.585 88.0054 390.513 91.9114 390.477C94.7066 390.441 97.5375 390.405 100.333 390.369C102.877 390.333 105.421 390.297 107.894 389.793C108.467 389.685 109.04 389.541 109.506 389.181C109.972 388.857 110.367 388.317 110.367 387.741C110.367 387.453 110.259 387.165 110.044 386.949C109.65 386.589 109.041 386.661 108.503 386.733C99.186 388.209 89.6897 388.317 80.3367 387.129C79.6558 387.057 78.3655 386.733 77.828 387.345C77.2904 387.921 77.5415 389.001 78.0791 389.433Z" fill="white"/>
<path d="M0.817965 154.128C0.280436 152.364 -0.328921 150.456 0.208608 148.8C0.817807 146.892 2.7173 146.064 4.47323 145.56C6.48 144.984 8.59421 144.588 10.6727 144.408C11.5685 144.336 13.6827 144.084 14.5427 144.588C15.7611 145.308 15.9406 146.928 16.2632 148.404C18.3058 157.189 20.3481 164.389 21.7456 172.525C21.9248 173.641 22.1042 174.937 21.495 175.765C21.1008 176.305 20.4914 176.521 19.918 176.701C16.6928 177.745 7.05321 181.094 5.65564 175.333C3.93554 168.241 3.03975 161.185 0.817965 154.128Z" fill="#AA6A64"/>
<path d="M1.42721 152.257C1.31971 151.573 1.24814 150.817 1.53482 150.241C1.85734 149.557 2.57394 149.305 3.21898 149.089C5.97829 148.224 8.80919 147.685 11.6402 147.145C12.106 147.073 13.2167 146.856 13.6826 147.036C13.9693 147.144 14.5428 147.325 14.7578 147.577C15.5462 148.441 15.4747 149.701 15.8689 150.853C16.2631 151.861 16.2629 152.977 16.5496 154.021C16.8721 155.173 17.087 156.325 17.3379 157.477C17.6962 159.169 18.1262 160.897 18.6279 162.553C18.9862 163.777 19.273 165.001 19.6672 166.189C19.8464 166.729 19.9541 167.377 19.8466 167.917C19.6674 168.709 19.1298 169.069 18.449 169.321C17.1589 169.789 15.7613 170.041 14.3996 170.257C12.3928 170.617 10.3499 170.977 8.34317 171.337C7.62647 171.481 6.15719 171.949 5.61966 171.013C5.33298 170.509 5.29716 169.609 5.18965 169.033C5.01048 168.241 4.86708 167.485 4.68791 166.693C3.9712 163.597 3.11158 160.537 2.43071 157.441C2.03652 155.713 1.67806 153.985 1.42721 152.257Z" fill="#D2D2D2"/>
<path d="M9.45448 146.136C9.23947 146.136 8.98836 146.172 8.73751 146.208C8.19998 146.316 7.66263 146.424 7.1251 146.532C6.80258 146.604 6.40857 146.712 6.40857 146.892C6.40857 146.964 6.51585 147.036 6.62335 147.072C7.16088 147.216 9.84868 146.856 9.92035 146.352C9.88452 146.208 9.70532 146.136 9.45448 146.136Z" fill="#279127"/>
<path d="M6.08573 146.82C5.97822 146.712 5.83497 146.748 5.72747 146.82C5.61996 146.892 5.58398 147.036 5.58398 147.144C5.58398 147.216 5.61989 147.324 5.65572 147.396C5.76323 147.54 6.01409 147.504 6.1216 147.36C6.22911 147.216 6.22911 147 6.1216 146.856L6.08573 146.82Z" fill="#279127"/>
<path d="M12.751 173.173C12.536 173.425 12.4645 173.785 12.4645 174.145C12.4645 174.325 12.5004 174.469 12.5362 174.649C12.6796 175.045 13.0379 175.369 13.4321 175.477C13.8263 175.621 14.2562 175.585 14.6504 175.441C14.7579 175.405 14.8657 175.369 14.9373 175.297C15.0448 175.225 15.0804 175.081 15.1163 174.973C15.2596 174.505 15.2595 174.001 15.0086 173.569C14.5786 172.813 13.3602 172.453 12.751 173.173Z" fill="#EBEFEB"/>
<defs>
<linearGradient id="paint0_linear_80_122" x1="71.9945" y1="387.626" x2="217.059" y2="394.748" gradientUnits="userSpaceOnUse">
<stop stop-color="#4D4D4D"/>
<stop offset="1"/>
</linearGradient>
<linearGradient id="paint1_linear_80_122" x1="71.9945" y1="387.626" x2="217.059" y2="394.748" gradientUnits="userSpaceOnUse">
<stop/>
<stop offset="1"/>
</linearGradient>
</defs>
</svg>
