<svg width="39" height="39" viewBox="0 0 39 39" fill="none" xmlns="http://www.w3.org/2000/svg">
<rect width="38.4" height="38.4" rx="19.2" fill="#8643BB"/>
<path fill-rule="evenodd" clip-rule="evenodd" d="M25.138 37.463C23.2678 38.0712 21.2721 38.4 19.2 38.4C17.1264 38.4 15.1294 38.0708 13.2582 37.4617C14.1226 37.5653 14.442 37.0026 14.442 36.5167C14.442 36.3051 14.4383 35.932 14.4335 35.4329C14.4279 34.8554 14.4207 34.1091 14.4156 33.2492C9.07435 34.4103 7.94755 30.6734 7.94755 30.6734C7.07515 28.4544 5.81635 27.8635 5.81635 27.8635C4.07275 26.671 5.94835 26.6952 5.94835 26.6952C7.87435 26.831 8.88835 28.6754 8.88835 28.6754C10.602 31.6115 13.3824 30.7638 14.4768 30.2713C14.6508 29.0297 15.1476 28.1829 15.696 27.7027C11.4324 27.2176 6.95035 25.57 6.95035 18.2078C6.95035 16.1098 7.69795 14.3952 8.92675 13.0514C8.72875 12.5652 8.06995 10.6126 9.11395 7.9671C9.11395 7.9671 10.7268 7.45069 14.394 9.93647C15.9264 9.51006 17.568 9.29776 19.2012 9.28908C20.832 9.29746 22.4748 9.51006 24.0084 9.93647C27.6732 7.45069 29.2824 7.9671 29.2824 7.9671C30.33 10.6126 29.6712 12.5652 29.4732 13.0514C30.7044 14.3952 31.4472 16.1098 31.4472 18.2078C31.4472 25.588 26.958 27.2128 22.6812 27.6883C23.37 28.2816 23.9844 29.4534 23.9844 31.2464C23.9844 32.9639 23.9736 34.4592 23.9665 35.45C23.963 35.9409 23.9604 36.308 23.9604 36.517C23.9604 37.0051 24.272 37.569 25.138 37.463Z" fill="white"/>
</svg>
