<svg width="39" height="39" viewBox="0 0 39 39" fill="none" xmlns="http://www.w3.org/2000/svg">
<rect width="38.4" height="38.4" rx="19.2" fill="#8643BB"/>
<path d="M15.2011 19.2C15.2011 16.9909 16.9914 15.1996 19.2004 15.1996C21.4095 15.1996 23.2008 16.9909 23.2008 19.2C23.2008 21.409 21.4095 23.2003 19.2004 23.2003C16.9914 23.2003 15.2011 21.409 15.2011 19.2ZM13.0386 19.2C13.0386 22.6032 15.7972 25.3618 19.2004 25.3618C22.6036 25.3618 25.3623 22.6032 25.3623 19.2C25.3623 15.7968 22.6036 13.0381 19.2004 13.0381C15.7972 13.0381 13.0386 15.7968 13.0386 19.2ZM24.1662 12.7938C24.1661 13.0786 24.2505 13.357 24.4086 13.5939C24.5667 13.8308 24.7916 14.0154 25.0546 14.1245C25.3177 14.2336 25.6072 14.2622 25.8866 14.2068C26.166 14.1513 26.4226 14.0143 26.6241 13.813C26.8255 13.6117 26.9628 13.3552 27.0184 13.0758C27.0741 12.7965 27.0457 12.507 26.9368 12.2438C26.828 11.9806 26.6435 11.7557 26.4067 11.5974C26.17 11.439 25.8916 11.3545 25.6068 11.3544H25.6062C25.2245 11.3545 24.8584 11.5062 24.5884 11.7761C24.3184 12.046 24.1666 12.412 24.1662 12.7938V12.7938ZM14.3524 28.9677C13.1825 28.9144 12.5466 28.7195 12.124 28.5549C11.5637 28.3368 11.164 28.077 10.7437 27.6573C10.3234 27.2376 10.0633 26.8382 9.8461 26.2779C9.68137 25.8555 9.48649 25.2194 9.4333 24.0495C9.37513 22.7846 9.36351 22.4046 9.36351 19.2C9.36351 15.9955 9.37609 15.6166 9.4333 14.3506C9.48658 13.1807 9.6829 12.5458 9.8461 12.1222C10.0642 11.5619 10.324 11.1622 10.7437 10.7419C11.1634 10.3216 11.5628 10.0614 12.124 9.84427C12.5464 9.67954 13.1825 9.48466 14.3524 9.43147C15.6173 9.3733 15.9973 9.36168 19.2004 9.36168C22.4036 9.36168 22.7839 9.37426 24.0499 9.43147C25.2198 9.48475 25.8547 9.68107 26.2783 9.84427C26.8386 10.0614 27.2383 10.3222 27.6586 10.7419C28.0789 11.1616 28.3381 11.5619 28.5562 12.1222C28.721 12.5446 28.9158 13.1807 28.969 14.3506C29.0272 15.6166 29.0388 15.9955 29.0388 19.2C29.0388 22.4046 29.0272 22.7835 28.969 24.0495C28.9157 25.2194 28.7199 25.8553 28.5562 26.2779C28.3381 26.8382 28.0783 27.2379 27.6586 27.6573C27.2389 28.0766 26.8386 28.3368 26.2783 28.5549C25.8559 28.7196 25.2198 28.9145 24.0499 28.9677C22.785 29.0258 22.405 29.0375 19.2004 29.0375C15.9959 29.0375 15.617 29.0258 14.3524 28.9677V28.9677ZM14.2531 7.27262C12.9756 7.3308 12.1027 7.53336 11.3403 7.83C10.5508 8.13634 9.88249 8.54731 9.21462 9.21413C8.54674 9.88094 8.13682 10.5504 7.83049 11.3399C7.53385 12.1027 7.33129 12.9751 7.27311 14.2526C7.21398 15.5321 7.20044 15.9411 7.20044 19.2C7.20044 22.4588 7.21398 22.8678 7.27311 24.1473C7.33129 25.4249 7.53385 26.2972 7.83049 27.06C8.13682 27.8491 8.54684 28.5192 9.21462 29.1858C9.88239 29.8523 10.5508 30.2627 11.3403 30.5699C12.1041 30.8665 12.9756 31.0691 14.2531 31.1273C15.5332 31.1855 15.9416 31.2 19.2004 31.2C22.4593 31.2 22.8683 31.1864 24.1478 31.1273C25.4254 31.0691 26.2977 30.8665 27.0605 30.5699C27.8496 30.2627 28.5184 29.8526 29.1863 29.1858C29.8541 28.519 30.2632 27.8491 30.5704 27.06C30.867 26.2972 31.0706 25.4248 31.1278 24.1473C31.1859 22.8669 31.1995 22.4588 31.1995 19.2C31.1995 15.9411 31.1859 15.5321 31.1278 14.2526C31.0696 12.975 30.867 12.1022 30.5704 11.3399C30.2632 10.5508 29.8531 9.882 29.1863 9.21413C28.5194 8.54626 27.8496 8.13634 27.0615 7.83C26.2977 7.53336 25.4253 7.32984 24.1488 7.27262C22.8693 7.21445 22.4602 7.19995 19.2014 7.19995C15.9426 7.19995 15.5332 7.21349 14.2531 7.27262Z" fill="white"/>
</svg>
