<svg width="39" height="39" viewBox="0 0 39 39" fill="none" xmlns="http://www.w3.org/2000/svg">
<rect width="38.4" height="38.4" rx="19.2" fill="#8643BB"/>
<path d="M29.86 28.2601C28.6 28.2301 27.37 28.2301 26.11 28.2601C25.84 28.2601 25.78 28.2001 25.78 27.9301C25.78 25.7101 25.78 23.4601 25.78 21.2401C25.78 20.7301 25.75 20.2201 25.6 19.7401C25.15 18.1801 23.35 17.6101 22.06 18.6601C21.37 19.2001 21.1 19.9501 21.1 20.8501C21.1 22.9501 21.1 25.0501 21.1 27.1501C21.1 27.4201 21.07 27.6901 21.1 27.9901C21.13 28.2301 21.01 28.2901 20.8 28.2601C19.51 28.2601 18.25 28.2601 16.96 28.2601C16.72 28.2601 16.66 28.2001 16.66 27.9601C16.69 26.0701 16.69 24.1801 16.69 22.2601C16.69 19.9201 16.69 17.5801 16.66 15.2701C16.66 15.0001 16.72 14.9401 16.96 14.9401C18.25 14.9401 19.51 14.9401 20.8 14.9401C21.04 14.9401 21.1 15.0001 21.1 15.2401C21.1 15.7201 21.1 16.2001 21.1 16.7701C21.19 16.6801 21.22 16.6501 21.25 16.6201C22.42 14.9101 24.07 14.4301 26.02 14.7301C28.27 15.0901 29.71 16.6501 30.07 19.0501C30.16 19.6201 30.19 20.1901 30.19 20.7601C30.19 23.1601 30.19 25.5301 30.19 27.9301C30.19 28.1701 30.13 28.2601 29.86 28.2601Z" fill="white"/>
<path d="M14.26 21.6001C14.26 23.7001 14.26 25.8001 14.26 27.9001C14.26 28.1701 14.2 28.2601 13.93 28.2601C12.67 28.2301 11.41 28.2601 10.15 28.2601C9.90998 28.2601 9.84998 28.2001 9.84998 27.9601C9.84998 23.7301 9.84998 19.4701 9.84998 15.2401C9.84998 15.0301 9.90998 14.9401 10.15 14.9401C11.44 14.9401 12.73 14.9401 14.02 14.9401C14.29 14.9401 14.32 15.0301 14.32 15.2701C14.26 17.3701 14.26 19.4701 14.26 21.6001Z" fill="white"/>
<path d="M14.47 11.46C14.17 12.66 12.94 13.35 11.53 13.11C10.03 12.87 9.19001 11.4 9.73001 9.96002C10.09 9.06002 10.96 8.52002 12.07 8.55002C13.75 8.52002 14.86 9.87002 14.47 11.46Z" fill="white"/>
</svg>
